# xmcd CD database file
#
# Track frame offsets:
#	150
#	27487
#	50745
#	73659
#	89857
#	104106
#	123897
#	141512
#
# Disc length: 2372 seconds
#
# Revision: 0
# Processed by: cddbd v1.5.2PL0 Copyright (c) Steve Scherf et al.
# Submitted via: CDex 1.51
#
DISCID=82094208
DTITLE=HARRI STOJKA - LIVE AT MONTREUX
DYEAR=1981
DGENRE=Jazz
TTITLE0=IMPROVISATION - INTRO
TTITLE1=ROMANO SUNO
TTITLE2=BLUES FOR JANO
TTITLE3=DOSTA LOWE - TRAD. ARR. STOJKA
TTITLE4=LOQUAI - BLUES
TTITLE5=ME DEI DU
TTITLE6=SUMMERTIME - GERSHWIN
TTITLE7=LAC LEMAN
EXTD=YEAR: 1981
EXTT0=
EXTT1=
EXTT2=
EXTT3=
EXTT4=
EXTT5=
EXTT6=
EXTT7=
PLAYORDER=
